<svg id="526782fb-8cc3-4702-8368-0a567de176ca" data-name="Layer 1" xmlns="http://www.w3.org/2000/svg" viewBox="0 0 138.6 147.1" width="138.6" height="147.1">
  <defs>
    <style>
      .\30 3e35624-f94d-41c2-a75f-7ea217224508, .c5f76e5e-dea1-41ca-bcf5-f26876f290fa {
        fill: #0066b2;
      }

      .\37 e042e1e-4ff4-49f6-aaa3-7f59f2d50a47, .\38 5155489-5c76-4112-9fdd-c68068f4a01e {
        fill: #fcb813;
      }

      .c4811bca-8bfc-4b2d-9853-8a6d14cc58cf {
        fill: #008f57;
      }

      .\30 3e35624-f94d-41c2-a75f-7ea217224508, .\38 5155489-5c76-4112-9fdd-c68068f4a01e, .c4811bca-8bfc-4b2d-9853-8a6d14cc58cf {
        fill-rule: evenodd;
      }
    </style>
  </defs>
  <title>uni7-logo-rodape-ver</title>
  <g>
    <g id="17c4bc52-970d-41dc-b63f-165b1271663a" data-name="&lt;Group&gt;">
      <path id="238550fb-fb06-47f1-924e-c1a3c8e3eee8" data-name="&lt;Compound Path&gt;" class="c5f76e5e-dea1-41ca-bcf5-f26876f290fa" d="M10.6,119A15.9,15.9,0,0,1,5,115.8a14.2,14.2,0,0,1-3.7-5.1A17.9,17.9,0,0,1,0,103.6V81.7H10V102q0,4.5,1.9,6.8t6.1,2.3q4.2,0,6.2-2.3t2-6.8V81.7h9.6v21.9a17.8,17.8,0,0,1-1.3,7,14.3,14.3,0,0,1-3.7,5.2,16,16,0,0,1-5.7,3.2,22.8,22.8,0,0,1-7.2,1.1A23.2,23.2,0,0,1,10.6,119Z"/>
      <path id="88cb61f5-a89b-44c5-bf10-4fc12eb0e72c" data-name="&lt;Compound Path&gt;" class="c5f76e5e-dea1-41ca-bcf5-f26876f290fa" d="M55.3,100.3v19H45.7V81.7h3.4l23,18.5V81.7h9.6v37.6H78.2Z"/>
      <path id="f61030a2-be19-48fe-ba84-feca71a78c57" data-name="&lt;Compound Path&gt;" class="c5f76e5e-dea1-41ca-bcf5-f26876f290fa" d="M91.6,81.7h10v37.6h-10Z"/>
      <polygon id="f1a1b80e-c4ba-4b38-b57f-53ebd9340b93" data-name="&lt;Path&gt;" class="7e042e1e-4ff4-49f6-aaa3-7f59f2d50a47" points="111.5 81.7 111.5 89.6 125.9 89.6 113 119.3 122.9 119.3 138.6 83.8 138.6 81.7 111.5 81.7"/>
    </g>
    <g id="3016e856-fd90-4ec8-af39-2e35ee28fe67" data-name="&lt;Group&gt;">
      <g id="929142e2-f65a-4239-a49d-5b1dd197150e" data-name="&lt;Group&gt;">
        <path id="957f4658-25ee-49da-8b28-4679545f4597" data-name="&lt;Path&gt;" class="c4811bca-8bfc-4b2d-9853-8a6d14cc58cf" d="M94.6,10.4a35.9,35.9,0,0,0-59,13Z"/>
        <path id="4a2458c0-ae53-44ff-a073-63de79a838f4" data-name="&lt;Path&gt;" class="c4811bca-8bfc-4b2d-9853-8a6d14cc58cf" d="M94.7,10.5h-.1L81.5,69.7A35.9,35.9,0,0,0,94.7,10.5Z"/>
      </g>
      <g id="5ee90d94-d75a-4c70-858b-2fe08454c4ca" data-name="&lt;Group&gt;">
        <path id="616aa0fe-3d25-4495-8def-d474807c2874" data-name="&lt;Path&gt;" class="85155489-5c76-4112-9fdd-c68068f4a01e" d="M94.6,10.4l-59,13a36.1,36.1,0,0,0-1,21.7A20.8,20.8,0,1,1,60.1,70.6a36.1,36.1,0,0,0,21.4-.9L94.6,10.4Z"/>
      </g>
      <path id="d93c41ee-d11f-4322-bc72-c67d14f61717" data-name="&lt;Path&gt;" class="03e35624-f94d-41c2-a75f-7ea217224508" d="M39.9,35.9a20.7,20.7,0,0,0-5.3,9.2A35.8,35.8,0,0,0,60.1,70.6,20.8,20.8,0,1,0,39.9,35.9Z"/>
    </g>
    <g id="5ad1ec9d-12b3-4398-bc63-dc75a5661b11" data-name="&lt;Group&gt;">
      <path id="46a864c4-4881-4284-8139-628bc971ffc4" data-name="&lt;Compound Path&gt;" class="c5f76e5e-dea1-41ca-bcf5-f26876f290fa" d="M9.5,134.6a1.6,1.6,0,0,0,1.2.5,1.7,1.7,0,0,0,1.2-.3,1.7,1.7,0,0,0,.5-.9h.9a2,2,0,0,1-.3.9,2.2,2.2,0,0,1-.8.8,2.8,2.8,0,0,1-1.4.3,2.7,2.7,0,0,1-1.3-.3,2.2,2.2,0,0,1-.9-.9,2.8,2.8,0,0,1-.3-1.3q0-.3,0-.8t0-.8a2.8,2.8,0,0,1,.3-1.3,2.2,2.2,0,0,1,.9-.9,2.7,2.7,0,0,1,1.3-.3,2.8,2.8,0,0,1,1.4.3,2.2,2.2,0,0,1,.8.8,2,2,0,0,1,.3.9h-.9a1.7,1.7,0,0,0-.5-.9,1.7,1.7,0,0,0-1.2-.3,1.6,1.6,0,0,0-1.2.5,1.8,1.8,0,0,0-.5,1.2q0,.3,0,.8t0,.8A1.8,1.8,0,0,0,9.5,134.6Z"/>
      <path id="9a6fa69d-1c54-4331-8930-84f538d8acd9" data-name="&lt;Compound Path&gt;" class="c5f76e5e-dea1-41ca-bcf5-f26876f290fa" d="M16.4,135h3.2v.7h-4v-6.2h3.9v.7H16.4v1.9h3v.7h-3Z"/>
      <path id="5507150f-22ca-4794-9384-f716408ca4c3" data-name="&lt;Compound Path&gt;" class="c5f76e5e-dea1-41ca-bcf5-f26876f290fa" d="M26,135.7l-.2-.2-3-4.4v4.6h-.7v-6.2h.7l.2.2,3,4.4v-4.6h.7v6.2H26Z"/>
      <path id="f19e5485-24f8-48e2-b1a7-961589c2bde5" data-name="&lt;Compound Path&gt;" class="c5f76e5e-dea1-41ca-bcf5-f26876f290fa" d="M33.5,129.5v.7H31.6v5.5h-.7v-5.5H28.9v-.7h4.6Z"/>
      <path id="c377a9f3-e1d3-430d-8656-20529c95635a" data-name="&lt;Compound Path&gt;" class="c5f76e5e-dea1-41ca-bcf5-f26876f290fa" d="M39.7,129.9a1.7,1.7,0,0,1,.6,1.4,1.8,1.8,0,0,1-.4,1.2,1.9,1.9,0,0,1-1,.6l1.4,2.4h-.6a.4.4,0,0,1-.4-.2l-1.3-2.3H36.5v2.5h-.7v-6.2h2.4A2.5,2.5,0,0,1,39.7,129.9Zm-1.6,2.5q1.4,0,1.4-1.1a.9.9,0,0,0-.3-.8,1.7,1.7,0,0,0-1-.3H36.5v2.2Z"/>
      <path id="ea2b9a84-d0f4-48cb-90fd-a6ac010fca7f" data-name="&lt;Compound Path&gt;" class="c5f76e5e-dea1-41ca-bcf5-f26876f290fa" d="M46.3,129.6a2.2,2.2,0,0,1,.9.9,2.8,2.8,0,0,1,.3,1.3q0,.5,0,.8t0,.8a2.9,2.9,0,0,1-.3,1.3,2.2,2.2,0,0,1-.9.9,2.9,2.9,0,0,1-2.7,0,2.2,2.2,0,0,1-.9-.9,2.9,2.9,0,0,1-.3-1.3q0-.3,0-.8t0-.8a2.8,2.8,0,0,1,.3-1.3,2.2,2.2,0,0,1,.9-.9,2.9,2.9,0,0,1,2.7,0Zm-2.5.9a1.8,1.8,0,0,0-.5,1.3q0,.3,0,.8t0,.8a1.8,1.8,0,0,0,.5,1.3,1.8,1.8,0,0,0,2.3,0,1.8,1.8,0,0,0,.5-1.3q0-.5,0-.8t0-.8a1.8,1.8,0,0,0-.5-1.3,1.8,1.8,0,0,0-2.3,0Z"/>
      <path id="e3230756-0e53-408e-8343-104fd0c17623" data-name="&lt;Compound Path&gt;" class="c5f76e5e-dea1-41ca-bcf5-f26876f290fa" d="M58,129.5v3.8a2.8,2.8,0,0,1-.6,1.9,2.8,2.8,0,0,1-3.7,0,2.8,2.8,0,0,1-.6-1.9v-3.8h.7v3.9a1.9,1.9,0,0,0,.4,1.3,1.8,1.8,0,0,0,2.3,0,1.8,1.8,0,0,0,.4-1.3v-3.9H58Z"/>
      <path id="1ab1a4bd-174c-40ef-80e8-9eac2c8560df" data-name="&lt;Compound Path&gt;" class="c5f76e5e-dea1-41ca-bcf5-f26876f290fa" d="M64.6,135.7l-.2-.2-3-4.4v4.6h-.7v-6.2h.7l.2.2,3,4.4v-4.6h.7v6.2h-.7Z"/>
      <path id="220d8d9a-80fc-4219-bee7-fb42a71685fc" data-name="&lt;Compound Path&gt;" class="c5f76e5e-dea1-41ca-bcf5-f26876f290fa" d="M68.1,135.7v-6.2h.7v6.2h-.7Z"/>
      <path id="42dce102-0cb3-46ab-960a-1712d8c1c87b" data-name="&lt;Compound Path&gt;" class="c5f76e5e-dea1-41ca-bcf5-f26876f290fa" d="M75.8,129.4h.5l-2,5.7-.2.3h-.7a.5.5,0,0,1-.5-.4l-2-5.7h.5a.3.3,0,0,1,.4.2l1.8,5.2,1.8-5.2A.3.3,0,0,1,75.8,129.4Z"/>
      <path id="46bb18a9-eaf8-49b5-94ab-1d2c0c334399" data-name="&lt;Compound Path&gt;" class="c5f76e5e-dea1-41ca-bcf5-f26876f290fa" d="M79.4,135h3.2v.7h-4v-6.2h3.9v.7H79.4v1.9h3v.7h-3Z"/>
      <path id="08e88927-49a3-4432-b105-d4ef8009bdb0" data-name="&lt;Compound Path&gt;" class="c5f76e5e-dea1-41ca-bcf5-f26876f290fa" d="M89.1,129.9a1.7,1.7,0,0,1,.6,1.4,1.8,1.8,0,0,1-.4,1.2,1.9,1.9,0,0,1-1,.6l1.4,2.4h-.6a.4.4,0,0,1-.4-.2l-1.3-2.3H85.9v2.5h-.7v-6.2h2.4A2.5,2.5,0,0,1,89.1,129.9Zm-1.6,2.5q1.4,0,1.4-1.1a.9.9,0,0,0-.3-.8,1.7,1.7,0,0,0-1-.3H85.9v2.2Z"/>
      <path id="57e7a9c2-cc2b-4b53-860e-7e0d6e5c0487" data-name="&lt;Compound Path&gt;" class="c5f76e5e-dea1-41ca-bcf5-f26876f290fa" d="M96.3,131.1h-.7V131l-.5-.6a1.5,1.5,0,0,0-1-.3l-.9.2a.8.8,0,0,0-.4.7.7.7,0,0,0,.2.5l.6.3,1.1.3a3.6,3.6,0,0,1,1.5.7,1.4,1.4,0,0,1,.4,1.1,1.6,1.6,0,0,1-.3,1,2,2,0,0,1-.9.7l-1.3.2-1.2-.3a2.4,2.4,0,0,1-.9-.7,1.4,1.4,0,0,1-.3-.8h.7v.2a1.5,1.5,0,0,0,.5.6,1.8,1.8,0,0,0,1.1.3,2.1,2.1,0,0,0,1.1-.3.9.9,0,0,0,.5-.8.6.6,0,0,0-.2-.5l-.7-.3-1.2-.4a2.5,2.5,0,0,1-1.3-.7,1.5,1.5,0,0,1-.4-1.1,1.6,1.6,0,0,1,.2-.9,1.8,1.8,0,0,1,.7-.6l1.2-.2a2.6,2.6,0,0,1,1.2.3,2.2,2.2,0,0,1,.8.7,1.4,1.4,0,0,1,.3.7Z"/>
      <path id="2fe575fe-f339-42e6-b72c-16d3d85eb4ab" data-name="&lt;Compound Path&gt;" class="c5f76e5e-dea1-41ca-bcf5-f26876f290fa" d="M98.8,135.7v-6.2h.7v6.2h-.7Z"/>
      <path id="9d67a380-e054-4745-b951-6d592bde831f" data-name="&lt;Compound Path&gt;" class="c5f76e5e-dea1-41ca-bcf5-f26876f290fa" d="M106.4,129.5v.7h-1.9v5.5h-.7v-5.5h-1.9v-.7h4.6Z"/>
      <path id="aaa7f5b0-1bc8-41d8-96c5-378acda6880f" data-name="&lt;Compound Path&gt;" class="c5f76e5e-dea1-41ca-bcf5-f26876f290fa" d="M108.6,134.3l-.5,1.2a.3.3,0,0,1-.4.2h-.5l2.2-5.7a.4.4,0,0,1,.4-.3h.5a.4.4,0,0,1,.4.3l2.2,5.7h-.5a.3.3,0,0,1-.4-.2l-.5-1.2Zm2.8-.8-1.3-3.2-1.3,3.2Zm-.8-5.8h1l-1,.8h-.9l.7-.8Z"/>
      <path id="ed43864b-e743-4293-ab32-0ecbb49fb6c4" data-name="&lt;Compound Path&gt;" class="c5f76e5e-dea1-41ca-bcf5-f26876f290fa" d="M119.2,129.9a1.7,1.7,0,0,1,.6,1.4,1.8,1.8,0,0,1-.4,1.2,1.9,1.9,0,0,1-1,.6l1.4,2.4h-.6a.4.4,0,0,1-.4-.2l-1.3-2.3H116v2.5h-.7v-6.2h2.4A2.5,2.5,0,0,1,119.2,129.9Zm-1.6,2.5q1.4,0,1.4-1.1a.9.9,0,0,0-.3-.8,1.7,1.7,0,0,0-1-.3H116v2.2Z"/>
      <path id="5cd34966-703d-4738-9c05-a5d9f24080a8" data-name="&lt;Compound Path&gt;" class="c5f76e5e-dea1-41ca-bcf5-f26876f290fa" d="M122.3,135.7v-6.2h.7v6.2h-.7Z"/>
      <path id="fb1f60cb-711e-4dc2-a4e7-2781a9deb4fe" data-name="&lt;Compound Path&gt;" class="c5f76e5e-dea1-41ca-bcf5-f26876f290fa" d="M129.3,129.6a2.2,2.2,0,0,1,.9.9,2.8,2.8,0,0,1,.3,1.3q0,.5,0,.8t0,.8a2.9,2.9,0,0,1-.3,1.3,2.2,2.2,0,0,1-.9.9,2.9,2.9,0,0,1-2.7,0,2.2,2.2,0,0,1-.9-.9,2.9,2.9,0,0,1-.3-1.3q0-.3,0-.8t0-.8a2.8,2.8,0,0,1,.3-1.3,2.2,2.2,0,0,1,.9-.9,2.9,2.9,0,0,1,2.7,0Zm-2.5.9a1.8,1.8,0,0,0-.5,1.3q0,.3,0,.8t0,.8a1.8,1.8,0,0,0,.5,1.3,1.8,1.8,0,0,0,2.3,0,1.8,1.8,0,0,0,.5-1.3q0-.5,0-.8t0-.8a1.8,1.8,0,0,0-.5-1.3,1.8,1.8,0,0,0-2.3,0Z"/>
      <path id="57d3f0c9-7b2a-449e-85c1-7928a81fb64c" data-name="&lt;Compound Path&gt;" class="c5f76e5e-dea1-41ca-bcf5-f26876f290fa" d="M31.1,140.7v.9l-2,5.2-.3.2h-.6v-.2h0l2-5.2H27.1v-.7h4Z"/>
      <path id="30c1b90e-0fb6-4197-9006-17e14b6f92d6" data-name="&lt;Compound Path&gt;" class="c5f76e5e-dea1-41ca-bcf5-f26876f290fa" d="M41.9,145.8a2.2,2.2,0,0,1-.9.9,2.8,2.8,0,0,1-1.3.3H37.4v-6.2h2.3a2.9,2.9,0,0,1,1.3.3,2.2,2.2,0,0,1,.9.9,2.6,2.6,0,0,1,.3,1.3q0,.3,0,.7t0,.7A2.6,2.6,0,0,1,41.9,145.8Zm-3.7-4.4v4.7h1.5a1.6,1.6,0,0,0,1.3-.5,1.9,1.9,0,0,0,.4-1.2q0-.3,0-.7t0-.7a1.8,1.8,0,0,0-.4-1.2,1.7,1.7,0,0,0-1.3-.5Z"/>
      <path id="dd043150-8815-4ab4-a887-4a7fcc7a9d64" data-name="&lt;Compound Path&gt;" class="c5f76e5e-dea1-41ca-bcf5-f26876f290fa" d="M45.9,146.2h3.2v.7h-4v-6.2h3.9v.7H45.9v1.9h3v.7h-3Z"/>
      <path id="500aff1f-be9f-41f1-b444-943fbe63c296" data-name="&lt;Compound Path&gt;" class="c5f76e5e-dea1-41ca-bcf5-f26876f290fa" d="M59.8,142.3h-.7v-.2l-.5-.6a1.5,1.5,0,0,0-1-.3l-.9.2a.8.8,0,0,0-.4.7.7.7,0,0,0,.2.5l.6.3,1.1.3a3.6,3.6,0,0,1,1.5.7,1.4,1.4,0,0,1,.4,1.1,1.6,1.6,0,0,1-.3,1,2,2,0,0,1-.9.7l-1.3.2-1.2-.3a2.4,2.4,0,0,1-.9-.7,1.4,1.4,0,0,1-.3-.8h.7v.2a1.5,1.5,0,0,0,.5.6,1.8,1.8,0,0,0,1.1.3,2.1,2.1,0,0,0,1.1-.3.9.9,0,0,0,.5-.8.6.6,0,0,0-.2-.5l-.7-.3L57,144a2.5,2.5,0,0,1-1.3-.7,1.5,1.5,0,0,1-.4-1.1,1.6,1.6,0,0,1,.2-.9,1.8,1.8,0,0,1,.7-.6l1.2-.2a2.6,2.6,0,0,1,1.2.3,2.2,2.2,0,0,1,.8.7,1.4,1.4,0,0,1,.3.7Z"/>
      <path id="b98f79fd-e6ca-4a7c-9035-76d6cc60ddce" data-name="&lt;Compound Path&gt;" class="c5f76e5e-dea1-41ca-bcf5-f26876f290fa" d="M63.5,146.2h3.2v.7h-4v-6.2h3.9v.7H63.5v1.9h3v.7h-3Z"/>
      <path id="0ca14dcf-f082-4aef-8e1a-100fd47d2d1e" data-name="&lt;Compound Path&gt;" class="c5f76e5e-dea1-41ca-bcf5-f26876f290fa" d="M73.6,140.7v.7H71.7v5.5h-.7v-5.5H69v-.7h4.6Z"/>
      <path id="575f36e4-9e9f-4f05-bc22-592ca3aa4159" data-name="&lt;Compound Path&gt;" class="c5f76e5e-dea1-41ca-bcf5-f26876f290fa" d="M77,146.2h3.2v.7h-4v-6.2h3.9v.7H77v1.9h3v.7H77Z"/>
      <path id="a5295ea2-4ffd-451d-9ded-9c54c1a28e78" data-name="&lt;Compound Path&gt;" class="c5f76e5e-dea1-41ca-bcf5-f26876f290fa" d="M87.6,140.9a.4.4,0,0,1,.4-.3h.5v6.2h-.7v-4.5l-1.4,2.7-.2.2h-.8l-.2-.2-1.4-2.7v4.5H83v-6.2h.5a.4.4,0,0,1,.4.3l1.8,3.6Z"/>
      <path id="d91e1c60-74b7-4671-b126-fe0d3005da52" data-name="&lt;Compound Path&gt;" class="c5f76e5e-dea1-41ca-bcf5-f26876f290fa" d="M91.7,140.9v-.2h2.6a2.2,2.2,0,0,1,1.2.3,1.7,1.7,0,0,1,.6.7,1.7,1.7,0,0,1,.2.8,1.3,1.3,0,0,1-.2.8l-.5.5.6.7a1.7,1.7,0,0,1,.2.9,1.8,1.8,0,0,1-.2.9,1.8,1.8,0,0,1-.7.7,2.1,2.1,0,0,1-1.1.3H91.7v-6.1Zm.9,2.4h1.7a1.5,1.5,0,0,0,.9-.2.9.9,0,0,0,0-1.4,1.5,1.5,0,0,0-.9-.2H92.5Zm0,2.9h1.9a1.3,1.3,0,0,0,.9-.3,1,1,0,0,0,.3-.7,1,1,0,0,0-.3-.7,1.3,1.3,0,0,0-.9-.3H92.5Z"/>
      <path id="5392b6bb-3328-46a0-bd8c-d21e775ddc9b" data-name="&lt;Compound Path&gt;" class="c5f76e5e-dea1-41ca-bcf5-f26876f290fa" d="M103.2,141.1a1.7,1.7,0,0,1,.6,1.4,1.8,1.8,0,0,1-.4,1.2,1.9,1.9,0,0,1-1,.6l1.4,2.4h-.6a.4.4,0,0,1-.4-.2l-1.3-2.3H100v2.5h-.7v-6.2h2.4A2.5,2.5,0,0,1,103.2,141.1Zm-1.6,2.5q1.4,0,1.4-1.1a.9.9,0,0,0-.3-.8,1.7,1.7,0,0,0-1-.3H100v2.2Z"/>
      <path id="6e1c7397-c927-459f-b2b7-5d4c4a41966b" data-name="&lt;Compound Path&gt;" class="c5f76e5e-dea1-41ca-bcf5-f26876f290fa" d="M110.2,140.9a2.2,2.2,0,0,1,.9.9,2.8,2.8,0,0,1,.3,1.3q0,.5,0,.8t0,.8a2.9,2.9,0,0,1-.3,1.3,2.2,2.2,0,0,1-.9.9,2.9,2.9,0,0,1-2.7,0,2.2,2.2,0,0,1-.9-.9,2.9,2.9,0,0,1-.3-1.3q0-.3,0-.8t0-.8a2.8,2.8,0,0,1,.3-1.3,2.2,2.2,0,0,1,.9-.9,2.9,2.9,0,0,1,2.7,0Zm-2.5.9a1.8,1.8,0,0,0-.5,1.3q0,.3,0,.8t0,.8a1.8,1.8,0,0,0,.5,1.3,1.8,1.8,0,0,0,2.3,0,1.8,1.8,0,0,0,.5-1.3q0-.5,0-.8t0-.8a1.8,1.8,0,0,0-.5-1.3,1.8,1.8,0,0,0-2.3,0Z"/>
    </g>
  </g>
</svg>
